<?xml version="1.0" encoding="utf-8"?>
<!-- Generator: Adobe Illustrator 24.3.0, SVG Export Plug-In . SVG Version: 6.00 Build 0)  -->
<svg version="1.1" id="Layer_1" xmlns="http://www.w3.org/2000/svg" xmlns:xlink="http://www.w3.org/1999/xlink" x="0px" y="0px"
	 viewBox="0 0 500 500" style="enable-background:new 0 0 500 500;" xml:space="preserve">
<style type="text/css">
	.st0{fill:#87CFFF;}
	.st1{opacity:0.8;fill:#FFFFFF;enable-background:new    ;}
	.st2{fill:#A3A5B5;}
	.st3{fill:none;stroke:#000000;stroke-miterlimit:10;}
	.st4{fill:none;stroke:#263238;stroke-width:3;stroke-linecap:round;stroke-linejoin:round;}
	.st5{opacity:0.4;}
	.st6{fill:#FFFFFF;}
	.st7{fill:none;stroke:#263238;stroke-width:2;stroke-linecap:round;stroke-linejoin:round;}
	.st8{fill:#263238;stroke:#263238;stroke-linecap:round;stroke-linejoin:round;}
	.st9{fill:#FFFFFF;stroke:#263238;stroke-linecap:round;stroke-miterlimit:10;}
	.st10{fill:none;stroke:#263238;stroke-linecap:round;stroke-miterlimit:10;}
	.st11{fill:#263238;stroke:#263238;stroke-linecap:round;stroke-miterlimit:10;}
	.st12{fill:#87CFFF;stroke:#263238;stroke-linecap:round;stroke-miterlimit:10;}
	.st13{fill:#FFFFFF;stroke:#263238;stroke-width:2;stroke-linecap:round;stroke-linejoin:round;}
</style>
<g id="freepik--background-simple--inject-2">
	<path class="st0" d="M430.7,186.5c-2.6-8.6-6.1-16.9-10.3-24.9c-21.8-40.4-59.9-70.9-101.7-89c-33.1-14.3-74.1-21.8-109.3-8.9
		c-17.8,6.5-34.5,19-44.1,35.7c-12.4,21.7-11.2,48.6-21.1,71.5c-8,18.5-27.9,29.6-43.5,41c-24.3,17.7-48.3,38.7-56.7,68.6
		c-11.2,40-7.9,87.5,14.8,123c17,26.5,46.1,34.5,76.1,35c28.3,0.5,63-6.6,89.4,6.3c45.1,22,104.5,46.7,154.9,29.3
		c52-18,77.5-52.9,85-98.3s-13.2-83.1-19.8-119C440.6,234.1,437.8,209.1,430.7,186.5z"/>
	<path class="st1" d="M430.7,186.5c-2.6-8.6-6.1-16.9-10.3-24.9c-21.8-40.4-59.9-70.9-101.7-89c-33.1-14.3-74.1-21.8-109.3-8.9
		c-17.8,6.5-34.5,19-44.1,35.7c-12.4,21.7-11.2,48.6-21.1,71.5c-8,18.5-27.9,29.6-43.5,41c-24.3,17.7-48.3,38.7-56.7,68.6
		c-11.2,40-7.9,87.5,14.8,123c17,26.5,46.1,34.5,76.1,35c28.3,0.5,63-6.6,89.4,6.3c45.1,22,104.5,46.7,154.9,29.3
		c52-18,77.5-52.9,85-98.3s-13.2-83.1-19.8-119C440.6,234.1,437.8,209.1,430.7,186.5z"/>
</g>
<g id="freepik--Plants--inject-2">
	<path class="st2" d="M51.6,322.7c-0.3-2.9-0.3-5.5-0.3-7.9c0-1.3,0-2.5,0-3.7c1-0.9,5.2-4.3,6.3-6.6s1.9-5.5,0.7-7.9
		c-1-2.3-3.8-3.3-6.1-2.3c-0.1,0.1-0.3,0.1-0.4,0.2c-3.2,2-3.5,8.9-2.6,12.2c0.1,0.3,1.8,4.6,1.8,4.6l0.1,0c0,1.1-0.1,2.3-0.1,3.5
		c0,2.4,0,5,0.2,7.9c0,0.5,0.1,1,0.1,1.5c0.4,0.5,0.6,0.9,0.6,0.9C51.8,324.2,51.7,323.4,51.6,322.7z"/>
	<path class="st2" d="M41.2,315.3c-4.3,0.7-4.9,4.8-0.8,7.4c3.4,2.2,9.3,2.4,11,2.4c0-0.3,0-0.6-0.1-0.9
		C49.7,321.7,44.8,314.7,41.2,315.3z"/>
	<path class="st2" d="M127.6,296.2c-3.8-0.1-7.9,5.4-9,8.6c-0.1,0.3-1.1,4.8-1,4.8h0.1c-0.7,0.9-1.3,1.8-2,2.9
		c-1.3,1.9-2.8,4.1-4.2,6.6l-0.5,0.9c-0.1,0.7-0.1,1.1-0.1,1.1l-0.3-0.3c-1.2,2.1-2.3,4.4-3.3,6.6c-1.4,3.2-2.6,6.5-3.4,9.9
		c0,0,0,0.1,0,0.1c-0.1-1.1-0.4-4.2-0.5-4.5c-0.8-3.4-4.2-9.4-8-9.8c-2.5-0.2-4.6,1.6-4.8,4.1c0,0.2,0,0.4,0,0.6
		c0,2.7,2.2,5.3,4.3,6.8c2.3,1.8,8.4,3.2,8.9,3.3c-0.8,3.5-1.3,7-1.6,10.6c-0.2,2.1-0.3,4.2-0.4,6.3c-0.1-1-0.2-1.8-0.2-2
		c-0.8-3.4-4.2-9.4-8-9.8c-2.4-0.2-4.6,1.6-4.8,4.1c0,0.2,0,0.4,0,0.6c0,2.7,2.2,5.2,4.3,6.8s7.3,2.9,8.7,3.2c0,0.8-0.1,1.6-0.1,2.4
		c-0.1,3.9-0.2,7.7-0.4,11.5c-0.1,1.3-0.2,2.6-0.3,4c-0.1-0.9-0.2-1.6-0.2-1.7c-0.7-3.4-4.2-9.4-8-9.8c-2.4-0.2-4.6,1.6-4.8,4
		c0,0.2,0,0.4,0,0.6c0,2.7,2.2,5.2,4.3,6.8s6.8,2.8,8.4,3.1c-0.1,0.9-0.2,1.8-0.3,2.7c0.6,0.2,1.2,0.3,1.8,0.4
		c0.2-1.7,0.4-3.5,0.5-5.3c1.4,0.4,6.5,1.8,9,1.4s5.6-1.5,6.9-3.9c1.2-2.2,0.5-5-1.7-6.3c-0.1-0.1-0.2-0.1-0.4-0.2
		c-3.6-1.5-9.3,2.2-11.5,4.8c-0.1,0.2-1.5,2.2-2.2,3.3c0.1-1.3,0.2-2.6,0.2-3.9c0.1-3.8,0.1-7.7,0.2-11.6c0-1.2,0-2.4,0-3.5
		c0.5,0.1,6.5,1.9,9.3,1.5c2.5-0.4,5.6-1.5,6.9-3.9c1.2-2.2,0.5-5-1.7-6.2c-0.1-0.1-0.3-0.1-0.4-0.2c-3.6-1.5-9.3,2.2-11.5,4.8
		c-0.2,0.2-2.1,3.1-2.6,3.9c0-2.6,0.1-5.2,0.3-7.7c0.2-3.4,0.6-6.9,1.3-10.3c0.2,0.1,6.5,1.9,9.4,1.5c2.5-0.4,5.6-1.5,6.9-3.9
		c1.2-2.2,0.5-5-1.7-6.3c-0.1-0.1-0.2-0.1-0.4-0.2c-3.6-1.5-9.3,2.2-11.5,4.8c-0.2,0.2-2.3,3.4-2.6,4c0-0.2,0.1-0.4,0.1-0.6
		c0.7-3.4,1.8-6.7,3.1-9.9c0.7-1.8,1.5-3.4,2.3-5c1.1,0.5,6.3,2.5,9,2.4s5.8-0.9,7.3-3.1c1.5-2,1-4.9-1-6.4
		c-0.1-0.1-0.3-0.2-0.4-0.3c-3.4-1.9-9.5,1.1-12,3.5c-0.1,0.1-1.3,1.6-2.2,2.6c0.4-0.7,0.7-1.5,1.1-2.1c1.4-2.5,2.8-4.8,4.1-6.7
		c0.7-1.1,1.4-2.1,2.1-3c1.3-0.1,6.7-0.7,9-2c2.3-1.3,4.7-3.5,5-6.1c0.4-2.5-1.4-4.9-3.9-5.3C127.8,296.3,127.7,296.2,127.6,296.2z"
		/>
	<path class="st2" d="M75,378.8c0.3,0.5,0.5,1,0.8,1.5l1.7-0.6c-0.7-1.3-1.3-2.6-2-3.9c1.4-0.5,6.3-2.1,8.2-3.8s3.8-4.4,3.5-7.1
		c-0.2-2.6-2.4-4.5-4.9-4.3c-0.1,0-0.2,0-0.4,0c-3.8,0.7-6.5,7-6.9,10.4c0,0.2,0,2.7,0,4c-0.7-1.1-1.3-2.3-2-3.4
		c-2-3.3-4.1-6.6-6.3-9.8l-1.9-3c0.5-0.1,6.4-2,8.5-3.9c1.9-1.7,3.8-4.4,3.5-7.1c-0.2-2.5-2.4-4.5-4.9-4.3c-0.1,0-0.3,0-0.4,0
		c-3.8,0.7-6.5,7-6.9,10.4c0,0.3,0,3.8,0,4.7c-1.4-2.2-2.8-4.4-4.1-6.7c-1.7-3-3.3-6.1-4.6-9.4c0.2-0.1,6.4-2,8.6-4
		c1.9-1.7,3.8-4.4,3.5-7.1c-0.2-2.5-2.4-4.5-4.9-4.3c-0.1,0-0.3,0-0.4,0c-3.8,0.7-6.5,7-6.9,10.4c0,0.3,0,4.1,0,4.8
		c-0.1-0.2-0.2-0.4-0.2-0.6c-1.2-3.2-2.2-6.6-2.9-10c-0.4-1.9-0.7-3.7-0.9-5.5c1.2-0.2,6.6-1.4,8.8-2.9s4.2-4,4.3-6.7
		c0.1-2.6-1.9-4.7-4.4-4.8c-0.1,0-0.3,0-0.4,0c-3.8,0.3-7.2,6.2-8,9.6c0,0.2-0.3,2.1-0.4,3.5h-0.5c0.2,2.2,0.5,4.6,0.9,7
		c0.6,3.5,1.5,6.9,2.7,10.2c0,0,0,0.1,0,0.1c-0.7-0.9-2.7-3.4-2.9-3.5c-2.5-2.4-8.6-5.6-12-3.9c-2.2,1.2-2.9,4-1.7,6.1
		c0.1,0.2,0.2,0.3,0.3,0.4c1.5,2.3,4.7,3.2,7.3,3.4c2.9,0.2,8.7-2,9.2-2.1c1.3,3.4,2.8,6.6,4.5,9.8c1,1.9,2,3.7,3.1,5.5
		c-0.6-0.8-1.2-1.4-1.3-1.5c-2.5-2.4-8.6-5.7-12-3.9c-2.2,1.2-2.9,4-1.7,6.1c0.1,0.2,0.2,0.3,0.3,0.5c1.5,2.3,4.7,3.2,7.3,3.4
		s7.6-1.6,8.9-2.1c0.4,0.7,0.8,1.4,1.3,2.1c2,3.3,4.1,6.6,6,9.9c0.7,1.2,1.3,2.3,1.9,3.5c-0.6-0.7-1-1.2-1.1-1.3
		c-2.5-2.4-8.6-5.6-12-3.9c-2.2,1.2-2.9,4-1.7,6.1c0.1,0.2,0.2,0.3,0.3,0.4c1.5,2.3,4.7,3.2,7.3,3.4C68.8,381,73.4,379.4,75,378.8z"
		/>
	<path class="st2" d="M108.7,306.9c-3.8-2.2-6.8,0.6-5.3,5.2c1.3,3.9,5.8,7.8,7.1,8.8l0.5-0.8C111.2,317,111.8,308.7,108.7,306.9z"
		/>
	<path class="st2" d="M339.3,465.6c-4.2,0.1-8.3,6.5-9.3,10.1c0,0.2-0.4,2.2-0.6,3.7c2,0.2,4,0.3,6,0.4c1.4-0.3,2.7-0.8,3.9-1.5
		c2.4-1.5,4.9-4.1,5.1-7.1c0.3-2.8-1.8-5.3-4.6-5.6C339.6,465.6,339.5,465.6,339.3,465.6z"/>
	<path class="st2" d="M302.9,409c-4.9,0-6.2,4.4-2.2,7.9c3.4,3,9.7,4.2,11.6,4.5l0.1-1C311,417.3,306.9,408.9,302.9,409z"/>
	<path class="st2" d="M381.1,464.8c1.7-2.2,1.4-5.4-0.8-7.1c-0.1-0.1-0.2-0.2-0.4-0.3c-3.6-2.2-10.6,0.8-13.4,3.2
		c-0.2,0.2-2.9,3-3.5,3.8c0.5-2.8,1-5.6,1.6-8.4c0.8-3.7,1.9-7.4,3.2-11c0.2,0.1,6.8,3.2,10,3.3c2.8,0,6.4-0.7,8.2-3.1
		c1.7-2.2,1.4-5.4-0.8-7.1c-0.1-0.1-0.2-0.2-0.4-0.3c-3.6-2.2-10.6,0.8-13.4,3.2c-0.2,0.2-3.1,3.3-3.5,3.9c0.1-0.2,0.1-0.4,0.2-0.6
		c1.4-3.5,3.1-7,5.1-10.2c1.1-1.8,2.2-3.5,3.4-5c1.1,0.7,6.5,3.8,9.4,4.2s6.5,0,8.5-2.1c2-2,2-5.2,0-7.1c-0.1-0.1-0.2-0.2-0.4-0.3
		c-3.4-2.6-10.6-0.4-13.7,1.7c-0.2,0.1-1.8,1.5-2.9,2.5c0.5-0.7,1.1-1.5,1.6-2.1c2-2.5,3.9-4.7,5.6-6.6c1-1.1,1.9-2,2.8-2.9
		c1.5,0.1,7.5,0.4,10.1-0.6s5.7-3,6.5-5.9c0.8-2.7-0.6-5.6-3.3-6.4c-0.1,0-0.3-0.1-0.4-0.1c-4.1-0.8-9.5,4.5-11.3,7.9
		c-0.1,0.3-2,5.1-1.9,5.1h0.1c-0.9,0.8-1.8,1.7-2.7,2.8c-1.8,1.9-3.8,4-5.8,6.5l-0.7,0.9c-0.2,0.8-0.3,1.2-0.3,1.2s-0.1-0.1-0.3-0.4
		c-1.6,2-3.2,4.2-4.7,6.6c-2.1,3.2-3.9,6.7-5.4,10.2c0,0,0,0.1,0,0.1c0.1-1.2,0.3-4.7,0.3-5c-0.2-3.8-2.9-11-7-12.1
		c-2.6-0.6-5.3,1-6,3.6c0,0.2-0.1,0.4-0.1,0.6c-0.4,3,1.5,6.1,3.5,8.2c2.2,2.3,8.6,4.9,9.1,5.1c-1.4,3.7-2.6,7.4-3.5,11.3
		c-0.5,2.2-1,4.5-1.5,6.8c0.1-1.1,0.1-2,0.1-2.2c-0.2-3.8-2.9-11-7-12.1c-2.6-0.7-5.3,0.9-6,3.6c-0.1,0.2-0.1,0.4-0.1,0.6
		c-0.4,3,1.5,6.1,3.5,8.2s7.4,4.4,8.9,5l-0.5,2.6c-0.7,3.6-1.4,7.2-2.1,10.7l1.8-0.2c0.6-3.4,1.2-6.8,1.8-10.2
		c0.2-1.3,0.4-2.6,0.7-3.9c0.5,0.2,6.8,3.2,9.9,3.2C375.8,467.9,379.4,467.2,381.1,464.8z"/>
	<path class="st2" d="M377.9,411.5c-3.8-3-7.5-0.5-6.7,4.7c0.7,4.5,5,9.5,6.2,10.8l0.7-0.8C379,423,381,414,377.9,411.5z"/>
	<path class="st2" d="M313,418.8c0.2-3.2,0.6-6.1,1-8.7c0.2-1.5,0.5-2.8,0.7-4c1.3-0.7,6.4-3.8,8-6.1s3.1-5.7,2.2-8.5
		c-0.7-2.7-3.5-4.3-6.2-3.6c-0.1,0-0.3,0.1-0.4,0.1c-3.9,1.6-5.4,9.1-5,12.9c0,0.3,1.1,5.4,1.2,5.4l0.1,0c-0.2,1.2-0.5,2.5-0.7,3.8
		c-0.4,2.6-0.9,5.5-1.2,8.7c0,0.5-0.1,1.1-0.1,1.6c0.3,0.7,0.5,1.1,0.5,1.1C312.9,420.5,312.9,419.6,313,418.8z"/>
	<path class="st2" d="M314.2,472.8c-1.7,0.6-2.9,2.1-3.1,3.9c5.2,1,10.3,1.8,15.5,2.4C324.2,476,318.2,471.5,314.2,472.8z"/>
	<path class="st2" d="M350.5,471c-2.6-0.7-5.3,0.9-6,3.6c-0.1,0.2-0.1,0.4-0.1,0.6c-0.2,1.6,0.2,3.3,1,4.7c3.8-0.1,7.5-0.3,11.3-0.8
		C355.6,475.7,353.4,471.8,350.5,471z"/>
	<path class="st2" d="M327.7,476c-1.6-3.9-3.4-7.9-5.1-11.8c-0.5-1.2-1-2.4-1.6-3.6c0.6-0.1,7.3-1.1,10-2.8c2.4-1.5,4.9-4.1,5.1-7.1
		c0.3-2.8-1.8-5.3-4.6-5.5c-0.1,0-0.3,0-0.4,0c-4.2,0.1-8.3,6.5-9.3,10.1c-0.1,0.3-0.7,4.2-0.8,5.1c-1.1-2.7-2.3-5.3-3.3-8
		c-1.4-3.6-2.5-7.3-3.4-11c0.3,0,7.3-1,10-2.8c2.3-1.5,4.9-4.1,5.1-7.1c0.3-2.8-1.8-5.3-4.6-5.6c-0.1,0-0.3,0-0.4,0
		c-4.2,0.1-8.3,6.5-9.3,10.1c-0.1,0.3-0.7,4.5-0.8,5.2c0-0.2-0.1-0.4-0.2-0.6c-0.8-3.8-1.2-7.6-1.4-11.4c-0.1-2.1-0.1-4.1,0-6.1
		c1.3,0,7.4-0.4,10.1-1.7s5.3-3.6,5.8-6.5c0.6-2.8-1.2-5.5-4-6c-0.1,0-0.3-0.1-0.4-0.1c-4.2-0.4-9,5.5-10.4,9
		c-0.1,0.2-0.6,2.2-1,3.7l-0.5-0.1c-0.2,2.5-0.3,5-0.2,7.8c0,3.9,0.4,7.8,1.1,11.6v0.1c-0.6-1.1-2.4-4.1-2.5-4.3
		c-2.3-3.1-8.4-7.7-12.4-6.3c-2.6,1-3.9,3.9-2.9,6.4c0.1,0.2,0.1,0.3,0.2,0.5c1.2,2.7,4.6,4.3,7.4,5c3.1,0.7,9.8-0.6,10.4-0.8
		c0.8,3.9,1.9,7.7,3.2,11.5c0.8,2.2,1.6,4.4,2.5,6.5c-0.5-0.9-1-1.8-1.1-1.9c-2.3-3.1-8.4-7.7-12.4-6.3c-2.6,1-3.9,3.9-2.9,6.5
		c0.1,0.2,0.1,0.3,0.2,0.5c1.2,2.7,4.6,4.3,7.4,5s8.5-0.4,10.1-0.7c0.3,0.8,0.7,1.7,1,2.5c1.6,4,3.3,8,4.8,11.9
		c0.3,0.8,0.6,1.7,0.9,2.5l2,0.2C328.6,478.2,328.2,477.1,327.7,476z"/>
</g>
<g id="freepik--Gears--inject-2">
	<path class="st3" d="M325.1,161.6l0.7,3.9l4.4,0.4l1.3-3.7c1.4-0.1,2.9-0.4,4.2-0.9l2.8,2.8l3.8-2.2l-1-3.8c1.1-0.9,2.1-2,2.9-3.2
		l3.9,0.7l1.9-4l-3-2.5c0.4-1.4,0.5-2.8,0.5-4.3l3.6-1.6l-0.8-4.4l-4-0.3c-0.5-1.3-1.2-2.6-2-3.8l2.1-3.5l-3.1-3.1l-3.5,2.1
		c-2-1.4-4.3-2.3-6.7-2.7l-1-4h-4.4l-1,4c-1.4,0.3-2.7,0.7-4,1.3l-3.1-2.7l-3.6,2.5l1.5,3.9c-1,1-1.8,2.1-2.5,3.3l-4.2-0.4l-1.5,4.1
		l3.4,2.3c-0.2,1-0.2,1.9-0.2,2.9c0,0.4,0,0.8,0,1.2l-3.6,2l1.1,4.3l4.1-0.1c0.6,1.3,1.4,2.5,2.2,3.6l-1.8,3.7l3.4,2.8l3.3-2.2
		 M339.5,139.4c3,5.3,1.1,12-4.2,15c-5.3,3-12,1.1-15-4.2c-3-5.3-1.1-12,4.2-15c1.6-0.9,3.5-1.4,5.4-1.4c0.5,0,1.1,0,1.6,0.1
		 M335.2,135.1c0.8,0.5,1.6,1,2.3,1.7"/>
	<path class="st3" d="M335.6,386.9l0.7,4l4.4,0.4l1.3-3.7c1.4-0.1,2.9-0.4,4.2-0.9l2.8,2.8l3.8-2.2l-1-3.8c1.1-0.9,2.1-2,2.9-3.2
		l3.9,0.7l1.9-4l-3-2.5c0.4-1.4,0.5-2.8,0.5-4.3l3.6-1.6l-0.8-4.4l-4-0.3c-0.5-1.3-1.2-2.6-2-3.8l2.1-3.5l-3.1-3.1l-3.5,2.1
		c-2-1.4-4.3-2.3-6.7-2.7l-1-4h-4.4l-1,4c-1.4,0.3-2.7,0.7-4,1.3l-3.2-2.7l-3.6,2.5l1.5,3.9c-1,1-1.8,2.1-2.5,3.3l-4.2-0.4l-1.5,4.1
		l3.4,2.3c-0.2,1-0.2,1.9-0.2,2.9c0,0.4,0,0.8,0,1.2l-3.6,2l1.1,4.3l4.1,0c0.6,1.3,1.4,2.5,2.2,3.6l-1.7,3.7l3.4,2.8l3.3-2.3
		 M350,364.6c3,5.3,1.1,12-4.2,15c-5.3,3-12,1.1-15-4.2c-3-5.3-1.1-12,4.2-15c1.6-0.9,3.5-1.4,5.4-1.4c0.5,0,1.1,0,1.6,0.1
		 M345.7,360.3c0.8,0.5,1.6,1,2.3,1.7"/>
	<path class="st3" d="M357,114.2l0.6,1.5c-0.3,0.3-0.6,0.6-0.8,0.9 M355.3,118.7c-0.1,0.1-0.1,0.2-0.2,0.4l-4.2-0.4l-1.5,4.1
		l3.4,2.3c-0.2,1-0.2,1.9-0.2,2.9c0,0.4,0,0.8,0,1.2l-3.6,2l1.1,4.3h4.1c0.6,1.3,1.4,2.5,2.2,3.6l-1.8,3.7l3.4,2.8l3.3-2.4
		c1.2,0.7,2.6,1.3,3.9,1.7l0.7,3.9l4.4,0.4l1.3-3.7c1.4-0.1,2.9-0.4,4.2-0.9l2.8,2.8l3.8-2.2l-1-3.8c1.1-0.9,2.1-2,2.9-3.2l3.9,0.7
		l1.9-4l-3-2.5c0.4-1.4,0.5-2.8,0.5-4.3l3.6-1.7l-0.8-4.3l-4-0.3c-0.5-1.3-1.2-2.6-2-3.8l2.1-3.5l-3.1-3.1l-3.5,2.1
		c-2-1.4-4.3-2.3-6.7-2.7l-1-4h-4.4l-1,4c-1.4,0.3-2.7,0.7-4,1.3l-3.2-2.7l-3.6,2.5l0.5,1.2 M380.9,130.3c-0.1,0.7-0.4,1.4-0.7,2.1
		 M379.4,133.9c-3.3,5.1-10.1,6.6-15.2,3.4c-5.1-3.3-6.6-10.1-3.4-15.2c3.3-5.1,10.1-6.6,15.2-3.4c3.2,2,5.1,5.5,5.1,9.2
		c0,0.3,0,0.5,0,0.8"/>
	<path class="st3" d="M93.2,250.3l-3.3,6.9l6.3,5.3l6.1-4.4c2.3,1.3,4.8,2.4,7.4,3.1l1.2,7.4l8.2,0.7l2.5-7c2.7-0.2,5.4-0.8,7.9-1.7
		l5.2,5.3l7.1-4.1l-2-7.1c2.1-1.8,3.9-3.8,5.5-6l7.2,1.3l3.5-7.5l-5.7-4.7c0.7-2.6,1-5.3,1-8l6.8-3.1l-1.4-8.1l-7.5-0.6
		c-1-2.5-2.2-4.9-3.7-7.1l3.8-6.5l-5.8-5.8l-6.6,3.9c-3.8-2.6-8-4.3-12.5-5.1l-1.9-7.5h-8.2l-1.9,7.5c-2.6,0.5-5,1.3-7.4,2.4
		l-5.9-5.1l-6.8,4.7l2.8,7.3c-1.8,1.9-3.4,3.9-4.7,6.1l-7.8-0.8l-2.8,7.8l6.4,4.4c-0.3,1.8-0.5,3.6-0.5,5.5c0,0.8,0,1.6,0.1,2.3
		l-6.8,3.8l2.1,8l7.7-0.1c0.8,1.8,1.8,3.5,3,5.1 M111.7,210.3c0.9-0.3,1.8-0.6,2.8-0.8 M119.5,209.1c11.3,0.5,20.1,10.1,19.6,21.5
		c-0.5,11.3-10.1,20.1-21.5,19.6S97.5,240.1,98,228.7c0.4-7.8,5.1-14.7,12.2-17.9"/>
</g>
<g id="freepik--light-bulb--inject-2">
	<line class="st4" x1="198.9" y1="228.1" x2="190.7" y2="222.8"/>
	<line class="st4" x1="213.1" y1="212.2" x2="211" y2="210.4"/>
	<line class="st4" x1="189.2" y1="258.8" x2="172.3" y2="254.5"/>
	<path class="st0" d="M280.7,362.8c-0.1,0-0.2,0-0.4,0c-0.4-0.1-0.7-0.4-0.9-0.7c-0.5-0.9-0.8-1.4,3.4-6.2
		c-9.1,5.6-10.1,5.3-10.6,5.2c-0.4-0.1-0.8-0.4-1-0.8c-0.8-1.5-1-1.7,15.8-15.5c-2.7,1.8-5.5,3.6-8,5.3
		c-14.8,9.9-19.4,12.7-21.5,12.2c-0.5-0.1-0.9-0.4-1.2-0.9c-0.9-1.6-0.9-1.6,19-15.9l3.9-2.8c-2.3,1.5-4.6,3.1-6.7,4.5
		c-15.7,10.6-22.8,15.2-25.5,14.6c-0.6-0.1-1-0.5-1.3-1c-1-1.7-1.2-2.1,27.7-21.7l-38.1,22c-0.7,0.4-1.6,0.1-2-0.5
		c-0.7-1.2-0.1-2.6,2.6-5c-4.4,2.5-6.9,3.5-8.2,3.2c-0.5-0.1-1-0.4-1.3-0.9c-0.8-1.4-0.5-2.8,10.1-9.9c-10.9,6.8-14.9,8.8-16.5,8.5
		c-0.5-0.1-0.9-0.4-1.1-0.8c-0.7-1.2-0.1-1.7,2.5-3.4l5.5-3.6l8.5-5.5c-9.3,4.8-10.7,4.5-11.5,4.3c-0.5-0.1-1-0.5-1.3-0.9
		c-0.4-0.7-0.1-1.6,0.5-2c29.4-17.4,74.7-45.3,85.6-54.5c-10.9,5-43.5,25.2-62,36.7c-23.9,14.9-24,14.8-25,14.6
		c-0.4-0.1-0.8-0.4-1-0.7c-0.8-1.4-0.8-2.3,8.8-8.2c-4.4,2.1-7.3,3-8.6,2.7c-0.6-0.1-1.1-0.5-1.3-1c-0.4-0.7-0.2-1.6,0.5-2
		c29.6-18.9,71.3-45.6,88.3-56.9c-4.7,2.4-11.1,6-18.1,10.2c-5.7,3.7-12.5,7.9-20.5,12.9c-10.6,6.6-21.3,13.1-30.2,18.5
		c-21.5,13.6-21.8,13.5-22.8,13.3c-0.4-0.1-0.8-0.4-1-0.7c-0.4-0.7-0.1-1.6,0.5-2c6.5-3.9,13.6-8.1,21.1-12.6l3.9-2.5
		c-15.5,8.9-24.1,12.8-26.7,12.2c-0.6-0.1-1.1-0.5-1.4-1c-0.9-1.6,0.4-3.6,11.4-10.8c-7.1,4.3-9.9,5.6-11.1,5.3
		c-0.5-0.1-0.9-0.4-1.1-0.8c-0.6-1.1-1.1-2,6.2-7.3c-3.9,2-6.4,2.8-7.6,2.5c-0.5-0.1-1-0.5-1.3-0.9c-0.2-0.3-0.3-0.8-0.1-1.1
		c0.1-0.4,0.4-0.7,0.7-0.9c32.4-18.5,81.6-47.7,96.6-59.5c-16.4,9.1-61.6,35.6-93.2,54.3c-0.7,0.4-1.6,0.2-2.1-0.5c0,0,0,0,0,0
		c-0.3-0.6-0.4-1.2-0.2-1.8c0.6-1.3,1.4-2.4,2.5-3.3c-2.3,1-3.9,1.3-4.8,1.1c-0.6-0.1-1-0.5-1.3-1c-0.9-1.5,0.8-2.8,3.4-4.6
		c2-1.4,4.8-3.2,8.8-5.7c7.4-4.6,17.5-10.7,28.3-17.2c12.1-7.3,26.4-15.9,37.8-23.1c-24.4,14-62.8,36.4-81.2,47.2
		c-0.3,0.2-0.8,0.3-1.1,0.1c-0.4-0.1-0.7-0.4-0.9-0.7c-0.8-1.3-1-1.7,12.2-10.1c-5.2,2.9-8.5,4.1-10.1,3.7c-0.6-0.1-1.2-0.5-1.5-1.1
		c-1-1.7-1-1.7,23.1-15.7c11.1-6.5,24.4-14.2,36.6-21.6c10.3-6.8,18.3-12,24.4-15.6c3.2-2.1,6.2-4.5,9.1-7.1
		c-12.5,5.6-61.8,35.4-93,54.8c-0.7,0.4-1.6,0.2-2.1-0.5s-0.2-1.6,0.5-2.1l9.7-6.2c-8,4.1-11,4.8-12.2,4.5c-0.6-0.1-1-0.5-1.3-1
		c-0.4-0.7-0.2-1.6,0.5-2l21.3-13.7c-17.4,9.8-18.8,9.5-19.7,9.3c-0.5-0.1-0.9-0.4-1.1-0.8c-0.4-0.7-0.2-1.6,0.5-2
		c22.5-13.9,54.4-34,73-46.6c-15,8.7-37,21.6-52.4,30.6l-17.2,10c-3.8,2.2-5.7,3.3-6.7,3.8l-0.3,0.2l0,0c-0.7,0.3-0.9,0.3-1.1,0.2
		c-0.8-0.2-1.3-1-1.1-1.8c0.1-0.4,0.3-0.7,0.7-0.9c23.8-14.7,59-36.9,74.8-47.9c-8.4,4.9-20.9,12.9-31,19.3
		c-28.3,18-36.9,23.2-39.3,22.6c-0.5-0.1-0.9-0.4-1.1-0.8c-0.6-1.1-1.1-1.9,8.3-8.6c-2.6,1.1-4.3,1.6-5.3,1.3
		c-0.6-0.1-1.1-0.5-1.4-1c-0.4-0.7-0.2-1.6,0.5-2c18.4-11.6,46.5-29.8,56.1-37.3c-8.4,4.1-26.9,16-37.7,22.9
		C200.7,243,200,243.3,198.9,243c-0.4-0.1-0.8-0.4-1-0.7c-0.8-1.4-1.5-2.6,15.8-14.5c-2.1,1.4-4.3,2.8-6.6,4.2
		c-0.4,0.3-0.9,0.4-1.3,0.3c-0.4-0.1-0.7-0.4-0.9-0.7c-1.1-1.9,0.5-3.4,12.6-12.8c-0.5-0.1-0.8-0.4-1.1-0.8c-0.4-0.7-0.1-1.6,0.6-2
		c0.3-0.2,0.6-0.2,0.9-0.2c1.6-0.9,3.1-1.9,4.6-3c4.9-3.4,6.3-4.2,7.4-4c0.5,0.1,0.9,0.4,1.1,0.8c0.9,1.5,0.2,2.4-8,8.7
		c2.3-1.4,4.6-2.9,7-4.3c23.1-14.1,24.9-13.7,26-13.5c0.5,0.1,0.9,0.4,1.1,0.8c0.4,0.7,0.2,1.6-0.5,2c-11.3,7-23,14.6-32.8,21.1
		c22.8-14.6,33.8-21,36.9-20.2c0.5,0.1,1,0.5,1.3,0.9c1,1.6,1.6,2.9-29.9,23.6l-4.5,3c6.4-4,12.8-8.2,18-11.6
		c20.2-13.1,23.5-15.1,25.1-14.7c0.4,0.1,0.8,0.4,1,0.8c0.4,0.7,0.2,1.6-0.5,2c-19.6,12.5-48.2,31.1-62.3,41.1
		c7.6-4.5,18.4-11.4,27.8-17.3c29.7-19,39.4-24.8,42.2-24.1c0.5,0.1,0.9,0.4,1.2,0.9c0.7,1.3,1.3,2.2-16.1,13.8
		c24.4-14.1,24.8-14,25.6-13.8c0.4,0.1,0.7,0.4,0.9,0.7c1,1.7,1.7,3-44.3,32.4c-3.3,2.1-6.7,4.3-10,6.4c18.2-10.8,39.9-24,56.3-34.3
		c0.3-0.2,0.8-0.3,1.2-0.2c0.4,0.1,0.7,0.4,0.9,0.7c0.7,1.2-0.3,2-1.5,2.8c-0.7,0.5-1.7,1.1-3,2c-2.4,1.6-6,4-10.6,7
		c-7.8,5.1-18.6,12.1-32.3,20.9c-13.2,8.5-26.4,17-35.5,22.8c12-6.4,35.4-20.1,80.4-48.8c6.5-4.1,6.5-4.1,7.1-4
		c0.4,0.1,0.7,0.4,1,0.7c0.4,0.6,0.6,1-0.6,2.1l0,0l0,0c-1.6,1.4-5.6,4-14.7,9.9c12.9-7.1,14.1-6.8,14.8-6.6
		c0.5,0.1,0.9,0.4,1.1,0.8c0.5,0.9,0.7,2.1-1.3,4.3c0.8-0.2,1.6-0.3,2.4-0.2c0.7,0.1,1.2,0.5,1.6,1.1c1,1.7,1.5,2.6-28.2,21.3
		c31.5-18.2,31.8-18.1,32.5-17.9c0.4,0.1,0.7,0.4,0.9,0.7c1,1.7-0.8,3.3-5.1,6.5c-2.8,2-6.7,4.6-11.9,8
		c17.5-10.9,21.9-13.2,23.4-12.8c0.4,0.1,0.8,0.4,1.1,0.8c0.2,0.3,0.3,0.8,0.1,1.1c-0.1,0.4-0.4,0.7-0.7,0.9
		c-10.2,5.8-20.6,11.8-30.6,17.7l-10.4,6.6c-20.4,12.9-35.3,22.2-45.8,28.3c-3.3,2.3-6.1,4.3-8.4,6c9.3-5.5,25.1-14.9,41-24.1
		c50-29.3,50.8-29.1,51.7-28.8c0.4,0.1,0.7,0.4,0.9,0.7c0.3,0.5,0.4,1.1,0.2,1.7c-0.3,1-0.9,1.8-1.6,2.5c3.4-1.7,5.6-2.4,6.6-2.2
		c0.5,0.1,1,0.4,1.2,0.9c0.8,1.4-0.3,2.1-2.8,3.8c-1.5,1-3.7,2.4-6.7,4.3l-0.6,0.4c4.7-2.2,7.9-3.3,9.6-2.9c0.7,0.1,1.3,0.6,1.6,1.1
		c1.4,2.4,0,3.9-48.8,32.8C252.3,299,225.2,315,217.8,321c4.1-1.4,14.2-6.3,39.4-21.6c20.5-12.4,43.2-26.9,54-33.9
		c7.5-4.8,7.5-4.8,8.2-4.7c0.4,0.1,0.7,0.4,1,0.7c0.6,1.1,1.2,2.1-7,8.3c1.2-0.5,2.4-0.7,3.7-0.6c0.6,0.1,1.1,0.5,1.3,1
		c0.9,1.5,0.9,1.5-15.3,12.1c-8,5.2-19.1,12.4-33.1,21.4c-13.5,8.7-27.1,17.4-36.4,23.3c18.9-10.1,54.3-32.6,70-42.5
		c14-8.9,14-8.9,14.8-8.7c0.4,0.1,0.7,0.4,0.9,0.7c1.1,1.9-0.6,4.5-7.2,9.4c0.2,0,0.4,0,0.6,0c0.5,0.1,0.9,0.4,1.2,0.9
		c1,1.8,2.2,3.9-42.1,31.7c12.8-7.9,26-16.2,36.7-23.1c0.7-0.5,1.6-0.3,2.1,0.4c0,0,0,0,0,0.1c0.7,1.3-0.3,2-2,3.2
		c-1,0.7-2.5,1.8-4.5,3.1s-4.4,3-7.4,4.9c4.1-2.1,6.7-3,8-2.6c0.6,0.1,1.1,0.5,1.4,1c0.8,1.5,0.6,2-9.5,8.5c2.1-0.9,3.6-1.2,4.6-1
		c0.6,0.1,1.1,0.5,1.5,1c1.2,2,0.3,2.9-26.8,19.4c-7.8,4.7-17.5,10.6-25.4,15.7l53.2-30.7c0.3-0.2,0.8-0.3,1.1-0.1
		c0.4,0.1,0.7,0.3,0.9,0.7c0.7,1.3-0.3,2.1-2,3.3c-1,0.8-2.6,1.9-4.7,3.3c-4,2.7-9.4,6.5-15.2,10.4c-6.8,4.6-15.3,10.4-22.3,15.2
		c3.2-2.1,6.5-4.4,9.5-6.4c15.5-10.5,22-14.7,24.5-14.2c0.5,0.1,1,0.5,1.3,0.9c0.9,1.5,0.9,1.6-16.8,14.4c12.9-8.6,17.1-11,19-10.6
		c0.5,0.1,0.9,0.4,1.2,0.9c0.7,1.2,0.7,1.2-8.2,8.5c-2.7,2.2-6.5,5.3-9.8,8.1c2.7-1.7,5.8-3.6,8.6-5.5c0.7-0.5,1.6-0.3,2.1,0.4
		c0,0,0,0,0,0.1c0.6,1,0.4,1.2-1.7,3.4c-1.7,1.8-3.1,3.4-4.3,4.7c9.1-5.4,9.4-5.3,10-5.2c0.4,0.1,0.7,0.4,0.9,0.7
		c0.4,0.7,0.2,1.6-0.5,2c0,0,0,0,0,0c-0.1,0.1-0.3,0.1-0.5,0.2c-1.3,0.6-8.7,5-15.2,8.9C281.2,362.8,281,362.8,280.7,362.8z
		 M295.1,353c0.2,0.3,0.4,0.5,0.7,0.6C295.5,353.5,295.3,353.3,295.1,353z M258.2,337.7c-8.6,5.4-17.1,10.8-22.7,14.6
		C241.6,348.8,250.3,343,258.2,337.7L258.2,337.7z M295.4,311.1c-9.8,5.4-25.7,15.7-37.7,23.5c4.4-2.8,9.5-5.9,15.2-9.4
		C280.8,320.2,289.4,315,295.4,311.1L295.4,311.1z M294.8,318.1c-5.3,2.8-13.4,8-21.3,13.1l0.8-0.5
		C281.7,326.3,289.7,321.4,294.8,318.1L294.8,318.1z M245.6,295.6c-6.6,4.1-12.6,8-17.6,11.4C233.2,303.7,239.3,299.7,245.6,295.6z
		 M316.8,256.3c-2.9,1-9,3.8-22.1,11.6S266,286,252,295.1c-6.1,4-11.2,7.3-15.6,10.1c8.4-5.2,19.7-12,34.8-20.9
		C289.6,273.4,310.2,261.2,316.8,256.3z M307.4,285.6l-2.1,1.4c-7,4.4-13.6,8.6-19.9,12.5C293.7,294.5,301.6,289.6,307.4,285.6z
		 M241.1,279c-9.2,5.5-18.1,11-24,14.7c3-1.5,6.6-3.6,10.7-6C231.8,285,236.3,282,241.1,279z M264.6,252.6
		c-3.8,2.6-7.6,5.1-11.2,7.5c-7,4.7-13.2,8.8-18.6,12.4l5.5-3.4c20.2-12.5,49.5-30.5,58.1-37.1c-3.2,1.4-6.3,3.1-9.2,4.9
		c-3.4,2.4-7.8,5.3-13.3,8.7C272.3,247.8,268.5,250.2,264.6,252.6L264.6,252.6z"/>
	<g class="st5">
		<path class="st6" d="M280.7,362.8c-0.1,0-0.2,0-0.4,0c-0.4-0.1-0.7-0.4-0.9-0.7c-0.5-0.9-0.8-1.4,3.4-6.2
			c-9.1,5.6-10.1,5.3-10.6,5.2c-0.4-0.1-0.8-0.4-1-0.8c-0.8-1.5-1-1.7,15.8-15.5c-2.7,1.8-5.5,3.6-8,5.3
			c-14.8,9.9-19.4,12.7-21.5,12.2c-0.5-0.1-0.9-0.4-1.2-0.9c-0.9-1.6-0.9-1.6,19-15.9l3.9-2.8c-2.3,1.5-4.6,3.1-6.7,4.5
			c-15.7,10.6-22.8,15.2-25.5,14.6c-0.6-0.1-1-0.5-1.3-1c-1-1.7-1.2-2.1,27.7-21.7l-38.1,22c-0.7,0.4-1.6,0.1-2-0.5
			c-0.7-1.2-0.1-2.6,2.6-5c-4.4,2.5-6.9,3.5-8.2,3.2c-0.5-0.1-1-0.4-1.3-0.9c-0.8-1.4-0.5-2.8,10.1-9.9c-10.9,6.8-14.9,8.8-16.5,8.5
			c-0.5-0.1-0.9-0.4-1.1-0.8c-0.7-1.2-0.1-1.7,2.5-3.4l5.5-3.6l8.5-5.5c-9.3,4.8-10.7,4.5-11.5,4.3c-0.5-0.1-1-0.5-1.3-0.9
			c-0.4-0.7-0.1-1.6,0.5-2c29.4-17.4,74.7-45.3,85.6-54.5c-10.9,5-43.5,25.2-62,36.7c-23.9,14.9-24,14.8-25,14.6
			c-0.4-0.1-0.8-0.4-1-0.7c-0.8-1.4-0.8-2.3,8.8-8.2c-4.4,2.1-7.3,3-8.6,2.7c-0.6-0.1-1.1-0.5-1.3-1c-0.4-0.7-0.2-1.6,0.5-2
			c29.6-18.9,71.3-45.6,88.3-56.9c-4.7,2.4-11.1,6-18.1,10.2c-5.7,3.7-12.5,7.9-20.5,12.9c-10.6,6.6-21.3,13.1-30.2,18.5
			c-21.5,13.6-21.8,13.5-22.8,13.3c-0.4-0.1-0.8-0.4-1-0.7c-0.4-0.7-0.1-1.6,0.5-2c6.5-3.9,13.6-8.1,21.1-12.6l3.9-2.5
			c-15.5,8.9-24.1,12.8-26.7,12.2c-0.6-0.1-1.1-0.5-1.4-1c-0.9-1.6,0.4-3.6,11.4-10.8c-7.1,4.3-9.9,5.6-11.1,5.3
			c-0.5-0.1-0.9-0.4-1.1-0.8c-0.6-1.1-1.1-2,6.2-7.3c-3.9,2-6.4,2.8-7.6,2.5c-0.5-0.1-1-0.5-1.3-0.9c-0.2-0.3-0.3-0.8-0.1-1.1
			c0.1-0.4,0.4-0.7,0.7-0.9c32.4-18.5,81.6-47.7,96.6-59.5c-16.4,9.1-61.6,35.6-93.2,54.3c-0.7,0.4-1.6,0.2-2.1-0.5c0,0,0,0,0,0
			c-0.3-0.6-0.4-1.2-0.2-1.8c0.6-1.3,1.4-2.4,2.5-3.3c-2.3,1-3.9,1.3-4.8,1.1c-0.6-0.1-1-0.5-1.3-1c-0.9-1.5,0.8-2.8,3.4-4.6
			c2-1.4,4.8-3.2,8.8-5.7c7.4-4.6,17.5-10.7,28.3-17.2c12.1-7.3,26.4-15.9,37.8-23.1c-24.4,14-62.8,36.4-81.2,47.2
			c-0.3,0.2-0.8,0.3-1.1,0.1c-0.4-0.1-0.7-0.4-0.9-0.7c-0.8-1.3-1-1.7,12.2-10.1c-5.2,2.9-8.5,4.1-10.1,3.7
			c-0.6-0.1-1.2-0.5-1.5-1.1c-1-1.7-1-1.7,23.1-15.7c11.1-6.5,24.4-14.2,36.6-21.6c10.3-6.8,18.3-12,24.4-15.6
			c3.2-2.1,6.2-4.5,9.1-7.1c-12.5,5.6-61.8,35.4-93,54.8c-0.7,0.4-1.6,0.2-2.1-0.5s-0.2-1.6,0.5-2.1l9.7-6.2c-8,4.1-11,4.8-12.2,4.5
			c-0.6-0.1-1-0.5-1.3-1c-0.4-0.7-0.2-1.6,0.5-2l21.3-13.7c-17.4,9.8-18.8,9.5-19.7,9.3c-0.5-0.1-0.9-0.4-1.1-0.8
			c-0.4-0.7-0.2-1.6,0.5-2c22.5-13.9,54.4-34,73-46.6c-15,8.7-37,21.6-52.4,30.6l-17.2,10c-3.8,2.2-5.7,3.3-6.7,3.8l-0.3,0.2l0,0
			c-0.7,0.3-0.9,0.3-1.1,0.2c-0.8-0.2-1.3-1-1.1-1.8c0.1-0.4,0.3-0.7,0.7-0.9c23.8-14.7,59-36.9,74.8-47.9
			c-8.4,4.9-20.9,12.9-31,19.3c-28.3,18-36.9,23.2-39.3,22.6c-0.5-0.1-0.9-0.4-1.1-0.8c-0.6-1.1-1.1-1.9,8.3-8.6
			c-2.6,1.1-4.3,1.6-5.3,1.3c-0.6-0.1-1.1-0.5-1.4-1c-0.4-0.7-0.2-1.6,0.5-2c18.4-11.6,46.5-29.8,56.1-37.3
			c-8.4,4.1-26.9,16-37.7,22.9C200.7,243,200,243.3,198.9,243c-0.4-0.1-0.8-0.4-1-0.7c-0.8-1.4-1.5-2.6,15.8-14.5
			c-2.1,1.4-4.3,2.8-6.6,4.2c-0.4,0.3-0.9,0.4-1.3,0.3c-0.4-0.1-0.7-0.4-0.9-0.7c-1.1-1.9,0.5-3.4,12.6-12.8
			c-0.5-0.1-0.8-0.4-1.1-0.8c-0.4-0.7-0.1-1.6,0.6-2c0.3-0.2,0.6-0.2,0.9-0.2c1.6-0.9,3.1-1.9,4.6-3c4.9-3.4,6.3-4.2,7.4-4
			c0.5,0.1,0.9,0.4,1.1,0.8c0.9,1.5,0.2,2.4-8,8.7c2.3-1.4,4.6-2.9,7-4.3c23.1-14.1,24.9-13.7,26-13.5c0.5,0.1,0.9,0.4,1.1,0.8
			c0.4,0.7,0.2,1.6-0.5,2c-11.3,7-23,14.6-32.8,21.1c22.8-14.6,33.8-21,36.9-20.2c0.5,0.1,1,0.5,1.3,0.9c1,1.6,1.6,2.9-29.9,23.6
			l-4.5,3c6.4-4,12.8-8.2,18-11.6c20.2-13.1,23.5-15.1,25.1-14.7c0.4,0.1,0.8,0.4,1,0.8c0.4,0.7,0.2,1.6-0.5,2
			c-19.6,12.5-48.2,31.1-62.3,41.1c7.6-4.5,18.4-11.4,27.8-17.3c29.7-19,39.4-24.8,42.2-24.1c0.5,0.1,0.9,0.4,1.2,0.9
			c0.7,1.3,1.3,2.2-16.1,13.8c24.4-14.1,24.8-14,25.6-13.8c0.4,0.1,0.7,0.4,0.9,0.7c1,1.7,1.7,3-44.3,32.4c-3.3,2.1-6.7,4.3-10,6.4
			c18.2-10.8,39.9-24,56.3-34.3c0.3-0.2,0.8-0.3,1.2-0.2c0.4,0.1,0.7,0.4,0.9,0.7c0.7,1.2-0.3,2-1.5,2.8c-0.7,0.5-1.7,1.1-3,2
			c-2.4,1.6-6,4-10.6,7c-7.8,5.1-18.6,12.1-32.3,20.9c-13.2,8.5-26.4,17-35.5,22.8c12-6.4,35.4-20.1,80.4-48.8
			c6.5-4.1,6.5-4.1,7.1-4c0.4,0.1,0.7,0.4,1,0.7c0.4,0.6,0.6,1-0.6,2.1l0,0l0,0c-1.6,1.4-5.6,4-14.7,9.9c12.9-7.1,14.1-6.8,14.8-6.6
			c0.5,0.1,0.9,0.4,1.1,0.8c0.5,0.9,0.7,2.1-1.3,4.3c0.8-0.2,1.6-0.3,2.4-0.2c0.7,0.1,1.2,0.5,1.6,1.1c1,1.7,1.5,2.6-28.2,21.3
			c31.5-18.2,31.8-18.1,32.5-17.9c0.4,0.1,0.7,0.4,0.9,0.7c1,1.7-0.8,3.3-5.1,6.5c-2.8,2-6.7,4.6-11.9,8
			c17.5-10.9,21.9-13.2,23.4-12.8c0.4,0.1,0.8,0.4,1.1,0.8c0.2,0.3,0.3,0.8,0.1,1.1c-0.1,0.4-0.4,0.7-0.7,0.9
			c-10.2,5.8-20.6,11.8-30.6,17.7l-10.4,6.6c-20.4,12.9-35.3,22.2-45.8,28.3c-3.3,2.3-6.1,4.3-8.4,6c9.3-5.5,25.1-14.9,41-24.1
			c50-29.3,50.8-29.1,51.7-28.8c0.4,0.1,0.7,0.4,0.9,0.7c0.3,0.5,0.4,1.1,0.2,1.7c-0.3,1-0.9,1.8-1.6,2.5c3.4-1.7,5.6-2.4,6.6-2.2
			c0.5,0.1,1,0.4,1.2,0.9c0.8,1.4-0.3,2.1-2.8,3.8c-1.5,1-3.7,2.4-6.7,4.3l-0.6,0.4c4.7-2.2,7.9-3.3,9.6-2.9
			c0.7,0.1,1.3,0.6,1.6,1.1c1.4,2.4,0,3.9-48.8,32.8C252.3,299,225.2,315,217.8,321c4.1-1.4,14.2-6.3,39.4-21.6
			c20.5-12.4,43.2-26.9,54-33.9c7.5-4.8,7.5-4.8,8.2-4.7c0.4,0.1,0.7,0.4,1,0.7c0.6,1.1,1.2,2.1-7,8.3c1.2-0.5,2.4-0.7,3.7-0.6
			c0.6,0.1,1.1,0.5,1.3,1c0.9,1.5,0.9,1.5-15.3,12.1c-8,5.2-19.1,12.4-33.1,21.4c-13.5,8.7-27.1,17.4-36.4,23.3
			c18.9-10.1,54.3-32.6,70-42.5c14-8.9,14-8.9,14.8-8.7c0.4,0.1,0.7,0.4,0.9,0.7c1.1,1.9-0.6,4.5-7.2,9.4c0.2,0,0.4,0,0.6,0
			c0.5,0.1,0.9,0.4,1.2,0.9c1,1.8,2.2,3.9-42.1,31.7c12.8-7.9,26-16.2,36.7-23.1c0.7-0.5,1.6-0.3,2.1,0.4c0,0,0,0,0,0.1
			c0.7,1.3-0.3,2-2,3.2c-1,0.7-2.5,1.8-4.5,3.1s-4.4,3-7.4,4.9c4.1-2.1,6.7-3,8-2.6c0.6,0.1,1.1,0.5,1.4,1c0.8,1.5,0.6,2-9.5,8.5
			c2.1-0.9,3.6-1.2,4.6-1c0.6,0.1,1.1,0.5,1.5,1c1.2,2,0.3,2.9-26.8,19.4c-7.8,4.7-17.5,10.6-25.4,15.7l53.2-30.7
			c0.3-0.2,0.8-0.3,1.1-0.1c0.4,0.1,0.7,0.3,0.9,0.7c0.7,1.3-0.3,2.1-2,3.3c-1,0.8-2.6,1.9-4.7,3.3c-4,2.7-9.4,6.5-15.2,10.4
			c-6.8,4.6-15.3,10.4-22.3,15.2c3.2-2.1,6.5-4.4,9.5-6.4c15.5-10.5,22-14.7,24.5-14.2c0.5,0.1,1,0.5,1.3,0.9
			c0.9,1.5,0.9,1.6-16.8,14.4c12.9-8.6,17.1-11,19-10.6c0.5,0.1,0.9,0.4,1.2,0.9c0.7,1.2,0.7,1.2-8.2,8.5c-2.7,2.2-6.5,5.3-9.8,8.1
			c2.7-1.7,5.8-3.6,8.6-5.5c0.7-0.5,1.6-0.3,2.1,0.4c0,0,0,0,0,0.1c0.6,1,0.4,1.2-1.7,3.4c-1.7,1.8-3.1,3.4-4.3,4.7
			c9.1-5.4,9.4-5.3,10-5.2c0.4,0.1,0.7,0.4,0.9,0.7c0.4,0.7,0.2,1.6-0.5,2c0,0,0,0,0,0c-0.1,0.1-0.3,0.1-0.5,0.2
			c-1.3,0.6-8.7,5-15.2,8.9C281.2,362.8,281,362.8,280.7,362.8z M295.1,353c0.2,0.3,0.4,0.5,0.7,0.6
			C295.5,353.5,295.3,353.3,295.1,353z M258.2,337.7c-8.6,5.4-17.1,10.8-22.7,14.6C241.6,348.8,250.3,343,258.2,337.7L258.2,337.7z
			 M295.4,311.1c-9.8,5.4-25.7,15.7-37.7,23.5c4.4-2.8,9.5-5.9,15.2-9.4C280.8,320.2,289.4,315,295.4,311.1L295.4,311.1z
			 M294.8,318.1c-5.3,2.8-13.4,8-21.3,13.1l0.8-0.5C281.7,326.3,289.7,321.4,294.8,318.1L294.8,318.1z M245.6,295.6
			c-6.6,4.1-12.6,8-17.6,11.4C233.2,303.7,239.3,299.7,245.6,295.6z M316.8,256.3c-2.9,1-9,3.8-22.1,11.6S266,286,252,295.1
			c-6.1,4-11.2,7.3-15.6,10.1c8.4-5.2,19.7-12,34.8-20.9C289.6,273.4,310.2,261.2,316.8,256.3z M307.4,285.6l-2.1,1.4
			c-7,4.4-13.6,8.6-19.9,12.5C293.7,294.5,301.6,289.6,307.4,285.6z M241.1,279c-9.2,5.5-18.1,11-24,14.7c3-1.5,6.6-3.6,10.7-6
			C231.8,285,236.3,282,241.1,279z M264.6,252.6c-3.8,2.6-7.6,5.1-11.2,7.5c-7,4.7-13.2,8.8-18.6,12.4l5.5-3.4
			c20.2-12.5,49.5-30.5,58.1-37.1c-3.2,1.4-6.3,3.1-9.2,4.9c-3.4,2.4-7.8,5.3-13.3,8.7C272.3,247.8,268.5,250.2,264.6,252.6
			L264.6,252.6z"/>
	</g>
	<path class="st7" d="M259.5,202.6L259.5,202.6h-0.7l0,0c-36.3,0.7-63.6,28.4-63.6,62.5c0,10.2,2.5,20.2,7.2,29.2
		c2,4.8,6.8,16.4,11.6,31.4c4.4,13.9,6.8,27.9,6.8,30c0,0.2,0,0.4,0,0.6c-0.1,2.6,1.9,4.8,4.5,4.8c0,0,0.1,0,0.1,0h64.9
		c2.6,0,4.7-2.1,4.7-4.7c0,0,0-0.1,0-0.1c0-0.2,0-0.4,0-0.6c0-2.1,2.3-16.1,6.8-30c4.8-15,9.6-26.7,11.6-31.4
		c16.1-30.5,4.5-68.4-26.1-84.5C278.8,205.2,269.3,202.8,259.5,202.6L259.5,202.6z"/>
	<path class="st4" d="M281.4,212.6c-1.8-0.8-3.7-1.5-5.6-2.1"/>
	<path class="st4" d="M302.2,228.5c0,0-5.1-8.1-16.3-13.6"/>
	<path class="st4" d="M253.8,332.9v-32.1c0,0,2.5-15.6-5.7-15.6s-7.5,8.1,1.9,16.9c9.4,8.8,23.8,0.6,25.7-6.2s-3.1-10-6.3-4.4
		s0,69.5,0,69.5"/>
	<line class="st4" x1="236.4" y1="186.3" x2="239.9" y2="197.2"/>
	<line class="st4" x1="321.2" y1="210.1" x2="309.8" y2="219"/>
	<line class="st4" x1="279" y1="178.4" x2="274.7" y2="197.2"/>
	<path class="st8" d="M223.7,365.9h68.6c0.9,0,1.6,0.7,1.6,1.6v0.8c0,0.9-0.7,1.6-1.6,1.6h-68.6c-0.9,0-1.6-0.7-1.6-1.6v-0.8
		C222.1,366.6,222.8,365.9,223.7,365.9z"/>
	<path class="st8" d="M223.7,374.9h68.6c0.9,0,1.6,0.7,1.6,1.6v0.8c0,0.9-0.7,1.6-1.6,1.6h-68.6c-0.9,0-1.6-0.7-1.6-1.6v-0.8
		C222.1,375.6,222.8,374.9,223.7,374.9z"/>
	<path class="st8" d="M223.7,383.8h68.6c0.9,0,1.6,0.7,1.6,1.6v0.8c0,0.9-0.7,1.6-1.6,1.6h-68.6c-0.9,0-1.6-0.7-1.6-1.6v-0.8
		C222.1,384.5,222.8,383.8,223.7,383.8z"/>
	<path class="st8" d="M260.1,392.5h-35.2l10.1,14c1.8,2.4,4.6,3.9,7.6,3.9h31c3,0,5.8-1.5,7.6-3.9l10.1-13.9L260.1,392.5z"/>
</g>
<g id="freepik--hand-3--inject-2">
	<path class="st9" d="M335.7,243c0,0-6.4,7-11.6,10.5s-8.9,8.1-4.1,10.5c2.9,1.4,7-0.6,7-0.6s-6.4,1.7-7.6,7.6s11.6,3.5,11.6,3.5
		s-9.3,6.4-6.4,8.7s8.7,0.6,11.6,0.6s17.5-9.3,21-9.3s10.5,7.6,10.5,13.4s9.3,5.2,10.5-12.8s-3.5-33.2-11.1-37.8
		S335.7,243,335.7,243z"/>
	<path class="st10" d="M332.2,262.8l23.2-8.7c0,0,10.2-2.2,17.5,9.9"/>
	<path class="st10" d="M336.3,269.8l21-3.5c0,0,9.3-0.6,15.1,10.5"/>
	<path class="st9" d="M361.9,283.7l-15.7,3.5l9.3,37.2c0,0,8.2,16.3,10.5,23.3s26.2,30.2,26.2,30.2l27.9-26.8
		c0,0-12.8-15.1-13.4-18.6s-2.9-44.2-2.9-50.1s-11.6-19.8-11.6-19.8s-4.8-6.9-7.1-18.5s-13-16.4-18.8-15.9s-21.8,2.3-28.2,7
		s-12.2,10.5-6.4,12.2c9.7,2.9,25.5-10,33.1-1.1c3.5,4.1,7.6,22,8.2,24.4C372.9,270.9,370,282,361.9,283.7L361.9,283.7"/>
	<path class="st11" d="M303.3,229.6c0.4-0.4,1-0.4,1.4-0.1l2.4,1.6c0.5,0.3,0.6,1,0.3,1.5c-0.3,0.5-1,0.6-1.5,0.3l-2.4-1.7
		c-0.5-0.3-0.6-1-0.3-1.5C303.2,229.7,303.2,229.7,303.3,229.6z"/>
	<path class="st12" d="M306,231.5c0.8-0.9,2.2-1,3.2-0.3l7.5,3.8l73.2,48.2c2.6,1.8,3.3,5.4,1.5,8.1s-5.4,3.3-8.1,1.5l0,0
		l-71.1-52.4l-5.8-5c-1.1-0.8-1.4-2.3-0.6-3.4c0,0,0,0,0,0C305.8,231.7,305.9,231.6,306,231.5z"/>
	<path class="st11" d="M389.9,283.2l-21.1-13.9c-3.3,1-5.7,4-5.8,7.5c0,0.3,0,0.7,0.1,1l20.2,14.9c2.6,1.8,6.2,1.2,8.1-1.5
		S392.5,285,389.9,283.2L389.9,283.2z"/>
	<path class="st9" d="M366,347.8c-6.4-9.3-14.5-33.2-18-37.8s-12.9-15-16.4-25.4s-5.8-18.8-5.8-27.5s7.5-10.2,13.3-0.9
		c5.8,9.3,12.8,23.6,12.8,23.6s4.7,5.8,14,4.1"/>
	<path class="st9" d="M333.1,253.3l2,3.9c0,0-0.4,0-3.5,1.8c-1.9,1.1-3.4,2.6-4.5,4.4c0,0-3-8.4-0.4-11c0.6-0.7,1.5-1.1,2.4-1.3
		C330.8,250.9,332.4,251.8,333.1,253.3z"/>
	<path class="st9" d="M414,339.4c0,0-15.4,4.6-23.4,12.6c-5.3,5.4-10.3,11.1-14.9,17.1l14.3,16.6c0,0,12-13.7,20-20
		c5.4-4.2,11.2-8,17.1-11.4L414,339.4z"/>
	<path class="st11" d="M428.3,459.8l-45.1-72.5c0,0,11.4-17.1,21.1-25.7s22.3-10.9,22.3-10.9l56.4,54.1"/>
	<path class="st10" d="M341.4,274.5l1-0.1"/>
	<path class="st10" d="M332.7,279.3c0,0,0.5-3.2,6.9-4.5"/>
	<path class="st10" d="M339.6,277.1c0,0-0.5,1.4-4.9,3.1"/>
	<path class="st10" d="M339.5,272.8c-2.2,0.4-4.4,1.2-6.2,2.5"/>
</g>
<g id="freepik--hand-2--inject-2">
	<path class="st9" d="M198.8,173.4c0,0,9.4,0.8,15.4,2.8s11.9,2,10.8-3.2c-0.6-3.1-4.8-5.2-4.8-5.2s5.3,4,10.6,1.3
		s-4.4-11.3-4.4-11.3s10.8,3.4,10.8-0.3s-4.9-7.2-6.7-9.6s-18.1-8.1-20.2-10.8s-0.5-12.9,4.1-16.5s-1.6-10.5-16.5-0.4
		s-24,23.1-23.1,32S198.8,173.4,198.8,173.4z"/>
	<path class="st10" d="M216.5,164l-21.1-13c0,0-8-6.7-3-19.9"/>
	<path class="st10" d="M219.5,156.4l-15.6-14.4c0,0-6.2-7-1-18.4"/>
	<path class="st9" d="M214.9,127.7l12.4,10.3l23.8-30.2c0,0,15.3-6.9,19.3-13s7.5-39.3,7.5-39.3L239.4,50c0,0-3.9,19.4-6.3,22.1
		s-40.3,19.6-44.9,23.2s-8.5,21.3-8.5,21.3c-2,7.2-4.7,14.2-8,21c-8.8,17.7-7.2,16.4-3.2,20.6s13.8,12.9,21.4,15.1
		s17.1,10.1,14.9,0.4c-2.2-9.9-23.5-14-21.2-25.5c1.1-5.3,12.7-19.6,14.2-21.4C198,126.8,208.5,122.3,214.9,127.7L214.9,127.7"/>
	<path class="st11" d="M208.1,207.1c-0.5,0-1-0.5-1-1l-0.1-2.9c-0.1-0.6,0.3-1.1,0.9-1.2s1.1,0.3,1.2,0.9c0,0.1,0,0.1,0,0.2l0.2,2.9
		c0,0.6-0.4,1.1-1,1.1L208.1,207.1z"/>
	<path class="st12" d="M208,203.8c-1.2-0.1-2.2-1.1-2.2-2.3l-1.5-8.2l-6.9-87.4c-0.2-3.2,2.3-5.9,5.5-6.1c3.2-0.2,5.9,2.3,6.1,5.5
		l2.2,88.3l-0.4,7.7c0.1,1.4-1,2.5-2.3,2.6c0,0,0,0,0,0C208.2,203.8,208.1,203.8,208,203.8z"/>
	<path class="st11" d="M197.2,105.8l2,25.2c2.8,2.1,6.6,2.1,9.4,0c0.3-0.2,0.5-0.4,0.8-0.7l-0.6-25.1c-0.2-3.2-2.9-5.6-6.1-5.5
		C199.5,100,197.1,102.7,197.2,105.8L197.2,105.8z"/>
	<path class="st9" d="M270.3,94.7c-3.3,10.8-17.8,25.7-20.3,30.9c-5.7,11.9-12.2,23.3-19.6,34.2c-2.5,3.7-5.2,4.3-6.8,5.6
		c-2.4,2-3.6,4.1-7.7,7.2c-6.9,5.4-12.7,0.4-8.9-9.9s10.7-24.6,10.7-24.6s1.7-7.2-5.4-13.5"/>
	<path class="st9" d="M208.5,169.1l1.9-3.9c0,0,0.3,0.4,3.6,1.7c2,0.8,4.1,1.1,6.2,0.9c0,0-4.8,7.5-8.5,7.1
		c-0.9-0.1-1.8-0.5-2.5-1.1C208,172.4,207.7,170.6,208.5,169.1z"/>
	<path class="st11" d="M236.2,18.7l-7.9,51.6c0,0,9.6,8.4,22.3,10.7c12.7,2.3,36,5.7,36,5.7l20.4-68.1"/>
	<path class="st13" d="M282.4,75.2c0,2.2-1.8,3.9-3.9,3.9c-2.2,0-3.9-1.8-3.9-3.9s1.8-3.9,3.9-3.9l0,0
		C280.7,71.2,282.4,73,282.4,75.2z"/>
	<path class="st10" d="M217.2,156.3l-0.7-0.7"/>
	<path class="st10" d="M226.4,160.2c0,0-2.8,1.5-7.8-2.7"/>
	<path class="st10" d="M220.3,156.1c0,0,1.3-0.5,5.5,2"/>
	<path class="st10" d="M217.1,158.9c1.7,1.6,3.6,2.7,5.8,3.4"/>
</g>
<g id="freepik--hand-1--inject-2">
	<path class="st9" d="M219.9,327.2c0,0,0.9,9.4,3,15.4s2.2,11.8-3.1,10.8c-3.2-0.6-5.2-4.7-5.2-4.7s4.1,5.2,1.5,10.6
		s-11.4-4.2-11.4-4.2s3.6,10.7-0.1,10.8s-7.3-4.8-9.6-6.5s-8.3-18-11.1-20.1s-12.9-0.3-16.4,4.4s-10.6-1.4-0.7-16.5
		s22.8-24.4,31.6-23.6S219.9,327.2,219.9,327.2z"/>
	<path class="st10" d="M210.8,345.1l-13.3-20.9c0,0-6.8-7.9-19.9-2.7"/>
	<path class="st10" d="M203.4,348.2l-14.6-15.4c0,0-7.1-6.1-18.4-0.7"/>
	<path class="st9" d="M174.5,343.9l10.4,12.3l-29.9,24.1c0,0-16.3,8.1-22.4,12.3S93.5,401,93.5,401l-6.2-38.2c0,0,19.3-4.4,21.9-6.8
		s29-33.6,32.5-38.2s21.2-8.8,21.2-8.8s7.9-2.6,16.8-10.5s20.3-5.3,24.6-1.3s16,15,18.3,22.5s3.4,15.7-2.2,13.6
		c-9.5-3.5-14.3-23.3-25.8-20.8c-5.2,1.1-19.4,13-21.2,14.5C173.4,327,169,337.6,174.5,343.9L174.5,343.9"/>
	<path class="st11" d="M253.9,336c0-0.5-0.5-1-1-1l-2.9-0.1c-0.6,0-1.1,0.4-1.1,1c0,0.6,0.4,1.1,1,1.1l2.9,0.1c0.6,0,1.1-0.4,1.1-1
		C253.9,336.1,253.9,336.1,253.9,336z"/>
	<path class="st12" d="M250.5,335.9c-0.1-1.2-1.1-2.2-2.4-2.2l-8.3-1.4l-87.5-5.6c-3.2-0.1-5.9,2.4-6,5.6c-0.1,3.2,2.4,5.9,5.6,6
		l0,0l88.3,0.9l7.7-0.5c1.4,0.1,2.5-1,2.6-2.4C250.5,336.1,250.5,336,250.5,335.9z"/>
	<path class="st11" d="M152.4,326.7l25.2,1.6c2.1,2.8,2.1,6.6,0.1,9.5c-0.2,0.3-0.4,0.5-0.7,0.8l-25.1-0.3c-3.2-0.1-5.7-2.8-5.6-6
		C146.6,329,149.3,326.5,152.4,326.7L152.4,326.7z"/>
	<path class="st9" d="M132.7,392.6c10.7-3.6,31.6-17.7,37.2-19.4s19.3-4.2,28.4-10.5s15.9-11.5,21.2-18.5s0.2-12.7-10.1-8.8
		s-24.5,11.1-24.5,11.1s-7.2,1.8-13.6-5.2"/>
	<path class="st9" d="M215.8,337l-3.9,1.9c0,0,0.4,0.3,1.8,3.5c0.9,2,1.2,4.1,1,6.2c0,0,7.4-4.9,6.9-8.6c-0.1-0.9-0.5-1.8-1.2-2.5
		C219.2,336.5,217.3,336.2,215.8,337z"/>
	<path class="st9" d="M107.2,354.6c0,0,9.6,12.9,11.1,24.1c1,7.5,1.5,15,1.5,22.6l-29.2,7c0,0-1.3-18.2-3.9-28
		c-1.8-6.6-4.1-13.1-6.8-19.4L107.2,354.6z"/>
	<path class="st11" d="M108.5,377.1c-2.6-12.7-11.2-22.1-11.2-22.1l-69.1,11v78l81.7-33.7C109.9,410.4,111.1,389.8,108.5,377.1z"/>
	<path class="st6" d="M90,411c0,1.7-1.3,3.1-3,3.1c-1.7,0-3.1-1.3-3.1-3c0-1.7,1.3-3.1,3-3.1c0,0,0.1,0,0.1,0
		C88.6,408,90,409.4,90,411z"/>
	<path class="st6" d="M98.6,407.4c0,1.7-1.4,3.1-3.1,3c-1.7,0-3.1-1.4-3-3.1c0-1.7,1.4-3,3.1-3C97.2,404.3,98.6,405.7,98.6,407.4
		C98.6,407.4,98.6,407.4,98.6,407.4z"/>
	<path class="st10" d="M196.4,348.9l-0.7-0.7"/>
	<path class="st10" d="M200.4,358c0,0,1.5-2.9-2.8-7.8"/>
	<path class="st10" d="M196.2,352c0,0-0.5,1.4,2.1,5.5"/>
	<path class="st10" d="M199,348.7c1.6,1.6,2.8,3.6,3.4,5.8"/>
</g>
</svg>
