<?xml version="1.0" encoding="utf-8"?>
<!-- Generator: Adobe Illustrator 24.3.0, SVG Export Plug-In . SVG Version: 6.00 Build 0)  -->
<svg version="1.1" id="OBJECTS" xmlns="http://www.w3.org/2000/svg" xmlns:xlink="http://www.w3.org/1999/xlink" x="0px" y="0px"
	 viewBox="0 0 921.83 275.11" style="enable-background:new 0 0 921.83 275.11;" xml:space="preserve">
<style type="text/css">
	.st0{fill:#221F20;}
	.st1{fill-rule:evenodd;clip-rule:evenodd;fill:#0065F2;}
	.st2{fill-rule:evenodd;clip-rule:evenodd;fill:#FFD059;}
	.st3{clip-path:url(#SVGID_2_);fill-rule:evenodd;clip-rule:evenodd;fill:#FFDA7D;}
</style>
<g>
	<path class="st0" d="M287.92,85.63c0,2.81,0.62,5.15,1.88,7.18c1.25,2.03,2.81,3.28,4.37,3.59l32.62,5.78
		c5.77,1.09,9.99,3.59,12.48,7.49c2.66,3.75,3.9,8.27,3.9,13.58c0,5.46-1.72,10.14-5.31,14.04c-3.44,3.9-9.21,5.93-17.17,5.93
		h-11.39c-10.46,0-18.1-1.56-22.78-4.53c-4.84-2.96-7.18-9.05-7.18-18.1c0-3.43,1.56-5.15,4.53-5.15c1.25,0,2.34,0.47,3.12,1.56
		c0.79,0.94,1.1,2.19,1.1,3.59c0,6.09,1.4,9.99,4.05,11.55c2.81,1.71,8.43,2.49,17.17,2.49h14.05c4.05,0,7.02-1.25,8.74-3.74
		c1.71-2.49,2.5-5.15,2.5-8.12c0-3.59-0.79-6.4-2.19-8.58c-1.4-2.03-2.81-3.28-4.06-3.59l-32.46-6.09
		c-5.93-1.09-10.15-3.28-12.64-6.24c-2.66-3.12-3.9-7.33-3.9-12.95c0-2.5,0.47-4.84,1.25-7.02c0.62-2.18,1.87-4.22,3.75-6.25
		c1.71-2.02,4.21-3.59,7.65-4.68c3.28-1.25,7.34-1.87,12.02-1.87h9.05c5.31,0,9.68,0.31,12.95,0.94c3.44,0.47,6.55,1.56,9.36,3.12
		c2.66,1.56,4.69,3.9,5.94,6.87c1.25,2.96,1.87,6.86,1.87,11.55c0,1.87-0.47,3.12-1.4,3.9c-0.94,0.78-1.88,1.25-2.96,1.25
		c-1.25,0-2.34-0.47-3.12-1.57c-0.78-0.94-1.25-2.19-1.25-3.59c0-6.09-1.25-9.99-4.05-11.55c-2.65-1.57-8.43-2.34-17.32-2.34h-12.65
		c-4.52,0-7.8,1.25-9.67,3.74C288.86,80.33,287.92,82.98,287.92,85.63L287.92,85.63z M421.21,108.58v5.77h-54.94v6.4
		c0,5.62,1.4,9.21,4.05,10.61c2.81,1.56,8.59,2.34,17.49,2.34h18.26c2.18,0,3.59-0.47,4.21-1.4c0.78-0.78,1.09-2.5,1.09-4.84
		c0-1.87,0.47-3.12,1.25-3.9c0.94-0.78,1.87-1.25,3.12-1.25c2.81,0,4.21,1.87,4.21,5.46c0,4.37-0.93,7.96-2.65,10.46
		c-1.87,2.66-5.31,3.9-10.46,3.9h-19.04c-10.77,0-18.42-1.41-23.1-4.22c-4.68-2.97-7.02-8.58-7.02-16.86v-12.48
		c0-8.28,2.34-14.05,7.02-16.86c4.68-2.97,12.33-4.37,23.1-4.37h3.43c10.61,0,18.26,1.4,22.94,4.37
		C418.87,94.69,421.21,100.3,421.21,108.58L421.21,108.58z M391.24,95.94h-3.43c-8.59,0-14.21,0.62-17.01,1.87
		c-2.81,1.09-4.37,3.75-4.53,7.96h46.35c-0.31-4.21-1.88-6.87-4.84-8.11C404.97,96.56,399.51,95.94,391.24,95.94L391.24,95.94z
		 M453.36,142.13l-21.38-51.35c-0.31-0.78-0.47-1.41-0.47-2.03c0-1.4,0.47-2.49,1.25-3.12c0.77-0.62,1.71-0.94,2.81-0.94
		c1.87,0,3.43,1.09,4.53,3.43l19.2,45.11l19.97-45.26c0.94-2.19,2.34-3.28,4.53-3.28c2.66,0,4.06,1.4,4.06,3.9
		c0,0.77-0.16,1.56-0.62,2.18l-22.63,51.35H453.36z M561.98,108.58v5.77h-54.94v6.4c0,5.62,1.4,9.21,4.21,10.61
		c2.65,1.56,8.43,2.34,17.32,2.34h18.26c2.18,0,3.59-0.47,4.37-1.4c0.62-0.78,1.09-2.5,1.09-4.84c0-1.87,0.31-3.12,1.25-3.9
		c0.94-0.78,1.87-1.25,2.97-1.25c2.81,0,4.37,1.87,4.37,5.46c0,4.37-0.94,7.96-2.81,10.46c-1.72,2.66-5.15,3.9-10.3,3.9h-19.19
		c-10.61,0-18.42-1.41-23.1-4.22c-4.68-2.97-7.02-8.58-7.02-16.86v-12.48c0-8.28,2.34-14.05,7.02-16.86
		c4.68-2.97,12.49-4.37,23.1-4.37h3.43c10.61,0,18.27,1.4,22.94,4.37C559.64,94.69,561.98,100.3,561.98,108.58L561.98,108.58z
		 M532.01,95.94h-3.43c-8.59,0-14.21,0.62-17.01,1.87c-2.66,1.09-4.22,3.75-4.53,7.96h46.35c-0.31-4.21-1.87-6.87-4.68-8.11
		C545.91,96.56,540.29,95.94,532.01,95.94L532.01,95.94z M607.55,95.94c-7.96,0-13.58,1.72-16.86,5.15
		c-3.12,3.43-4.68,8.11-4.68,13.89v23.1c0,3.28-1.41,4.99-4.37,4.99c-2.81,0-4.22-1.71-4.22-4.99V91.72c0-3.43,1.4-5.15,4.06-5.15
		c2.96,0,4.53,1.87,4.53,5.46v1.25c4.84-3.9,12.02-5.93,21.53-5.93h3.44c10.61,0,18.26,1.4,22.94,4.37
		c4.68,2.81,7.02,8.58,7.02,16.86v29.5c0,3.28-1.4,4.99-4.21,4.99c-2.96,0-4.37-1.71-4.37-4.99v-29.18c0-5.62-1.41-9.36-4.06-10.77
		c-2.81-1.4-8.58-2.18-17.33-2.18H607.55z M683.88,85.63c0,2.81,0.78,5.15,2.03,7.18c1.25,2.03,2.65,3.28,4.21,3.59l32.62,5.78
		c5.77,1.09,9.99,3.59,12.48,7.49c2.66,3.75,3.91,8.27,3.91,13.58c0,5.46-1.72,10.14-5.15,14.04c-3.59,3.9-9.36,5.93-17.32,5.93
		h-11.39c-10.46,0-18.1-1.56-22.79-4.53c-4.68-2.96-7.02-9.05-7.02-18.1c0-3.43,1.4-5.15,4.53-5.15c1.25,0,2.18,0.47,2.96,1.56
		c0.78,0.94,1.09,2.19,1.09,3.59c0,6.09,1.41,9.99,4.22,11.55c2.65,1.71,8.43,2.49,17.01,2.49h14.05c4.06,0,7.02-1.25,8.74-3.74
		c1.72-2.49,2.5-5.15,2.5-8.12c0-3.59-0.62-6.4-2.18-8.58c-1.4-2.03-2.81-3.28-4.06-3.59l-32.46-6.09
		c-5.93-1.09-10.15-3.28-12.64-6.24c-2.5-3.12-3.75-7.33-3.75-12.95c0-2.5,0.31-4.84,1.09-7.02c0.78-2.18,2.03-4.22,3.75-6.25
		c1.71-2.02,4.21-3.59,7.64-4.68c3.44-1.25,7.33-1.87,12.02-1.87H709c5.31,0,9.67,0.31,13.11,0.94c3.28,0.47,6.4,1.56,9.21,3.12
		c2.81,1.56,4.68,3.9,5.93,6.87c1.25,2.96,1.87,6.86,1.87,11.55c0,1.87-0.47,3.12-1.4,3.9c-0.78,0.78-1.88,1.25-2.97,1.25
		c-1.25,0-2.34-0.47-3.12-1.57c-0.78-0.94-1.25-2.19-1.25-3.59c0-6.09-1.25-9.99-3.9-11.55c-2.81-1.57-8.59-2.34-17.48-2.34h-12.64
		c-4.53,0-7.81,1.25-9.68,3.74C684.81,80.33,683.88,82.98,683.88,85.63L683.88,85.63z M764.4,120.75c0,5.62,1.25,9.05,3.75,10.61
		c2.34,1.56,7.18,2.34,14.2,2.34c3.44,0,5.31,1.25,5.31,3.9c0,3.12-1.87,4.53-5.31,4.53c-9.05,0-15.6-1.41-19.97-4.37
		c-4.37-2.96-6.55-8.59-6.55-16.7V95.31c-2.35-0.31-3.59-1.72-3.59-4.06c0-2.19,1.25-3.44,3.59-3.75V76.12
		c0-3.59,1.4-5.46,4.06-5.46c2.96,0,4.52,1.87,4.52,5.46v11.24h15.3c3.59,0,5.46,1.56,5.46,4.52c0,2.65-1.87,4.06-5.46,4.06h-15.3
		V120.75z M828.08,105.93h16.23v-5c0-2.03-0.31-3.27-1.09-3.9c-0.62-0.78-2.03-1.09-4.22-1.09h-16.7c-6.24,0-10.3,0.31-12.48,0.94
		c-2.18,0.78-3.28,2.03-3.28,3.74c0,3.43-1.4,5.31-4.36,5.31c-2.81,0-4.06-1.88-4.06-5.31c0-4.99,1.87-8.43,5.93-10.45
		c4.06-1.87,9.83-2.81,17.32-2.81h18.41c5.15,0,8.59,1.25,10.3,3.59c1.87,2.34,2.81,6.4,2.81,11.86v35.27
		c0,3.28-1.41,4.99-4.21,4.99c-2.97,0-4.37-1.87-4.37-5.31v-1.57c-4.68,4.06-11.86,5.94-21.38,5.94H812c-4.06,0-7.49-1.25-9.98-4.06
		c-2.66-2.81-3.9-6.55-3.9-11.24c0-7.96,2.34-13.58,7.18-16.54C809.98,107.48,817.62,105.93,828.08,105.93L828.08,105.93z
		 M844.31,114.51h-16.23c-8.89,0-14.67,0.78-17.32,2.18c-2.81,1.56-4.22,5.15-4.22,10.77c0,1.72,0.63,3.12,1.88,4.37
		c1.09,1.25,2.34,1.87,3.59,1.87h10.92c4.68,0,8.43-0.62,11.55-1.87c3.12-1.09,5.31-2.81,6.55-4.99c1.41-2.03,2.19-4.06,2.66-5.93
		C844.15,119.19,844.31,117,844.31,114.51L844.31,114.51z M896.59,95.94c-5.78,0-10.3,1.56-13.27,4.84
		c-3.12,3.27-4.53,7.96-4.53,14.2v23.1c0,3.28-1.56,4.99-4.37,4.99c-2.81,0-4.22-1.71-4.22-4.99V91.72c0-3.43,1.25-5.15,4.06-5.15
		c2.97,0,4.53,1.87,4.53,5.46v1.25c4.68-3.9,10.62-5.93,17.79-5.93h5.46c3.59,0,5.46,1.4,5.46,4.37c0,2.81-1.88,4.21-5.46,4.21
		H896.59z"/>
	<path class="st0" d="M296.35,161.33l13.27,35.74c0.15,0.31,0.15,0.62,0.15,0.78c0,0.62-0.15,0.93-0.47,1.25
		c-0.31,0.16-0.78,0.31-1.09,0.31c-0.62,0-1.09-0.47-1.4-1.4l-4.22-11.24h-16.07L282.46,198c-0.46,0.94-0.94,1.4-1.56,1.4
		c-0.31,0-0.62-0.15-0.94-0.31c-0.47-0.31-0.62-0.62-0.62-1.25c0-0.16,0.16-0.47,0.31-0.78l13.11-35.74H296.35z M294.48,165.85
		l-6.71,17.95h13.73L294.48,165.85z M342.08,198.47h-8.27c-4.37,0-7.65-0.78-9.83-2.18c-2.03-1.25-3.12-4.06-3.12-8.11v-6.4
		c0-4.05,1.09-6.71,3.12-8.11c2.18-1.4,5.46-2.03,9.83-2.03h8.27c1.25,0,2.34,0.16,3.12,0.47c0.77,0.31,1.4,0.94,1.71,1.56
		c0.47,0.78,0.63,1.4,0.79,2.03c0.16,0.79,0.16,1.41,0.16,2.34c0,1.4-0.47,2.03-1.56,2.03c-0.94,0-1.4-0.62-1.4-1.87
		c0-1.4-0.31-2.34-0.78-2.81c-0.47-0.47-1.25-0.78-2.5-0.78h-7.81c-1.87,0-3.43,0-4.53,0.16c-1.09,0.16-2.02,0.47-2.96,0.94
		c-0.94,0.47-1.56,1.25-1.87,2.19c-0.47,0.93-0.62,2.34-0.62,4.06v6.24c0,1.56,0.16,2.96,0.62,3.9c0.31,0.94,0.93,1.72,1.87,2.19
		c0.94,0.47,1.88,0.78,2.96,0.94c1.1,0.16,2.66,0.16,4.53,0.16h7.81c1.25,0,2.18-0.16,2.5-0.78c0.47-0.47,0.78-1.41,0.78-2.81
		c0-1.25,0.46-1.87,1.4-1.87c1.1,0,1.56,0.62,1.56,2.03c0,0.94,0,1.72-0.16,2.34c-0.16,0.78-0.31,1.4-0.79,2.03
		c-0.31,0.62-0.94,1.25-1.71,1.56C344.42,198.31,343.33,198.47,342.08,198.47L342.08,198.47z M382.04,198.47h-8.27
		c-4.38,0-7.65-0.78-9.84-2.18c-2.03-1.25-3.12-4.06-3.12-8.11v-6.4c0-4.05,1.09-6.71,3.12-8.11c2.19-1.4,5.46-2.03,9.84-2.03h8.27
		c1.25,0,2.34,0.16,3.12,0.47c0.78,0.31,1.41,0.94,1.87,1.56c0.31,0.78,0.62,1.4,0.62,2.03c0.16,0.79,0.16,1.41,0.16,2.34
		c0,1.4-0.47,2.03-1.41,2.03c-1.09,0-1.56-0.62-1.56-1.87c0-1.4-0.16-2.34-0.62-2.81c-0.47-0.47-1.4-0.78-2.66-0.78h-7.8
		c-1.88,0-3.44,0-4.53,0.16c-1.1,0.16-2.03,0.47-2.97,0.94c-0.94,0.47-1.56,1.25-1.87,2.19c-0.31,0.93-0.47,2.34-0.47,4.06v6.24
		c0,1.56,0.16,2.96,0.47,3.9c0.31,0.94,0.94,1.72,1.87,2.19c0.94,0.47,1.87,0.78,2.97,0.94c1.09,0.16,2.65,0.16,4.53,0.16h7.8
		c1.25,0,2.19-0.16,2.66-0.78c0.47-0.47,0.62-1.41,0.62-2.81c0-1.25,0.47-1.87,1.56-1.87c0.94,0,1.41,0.62,1.41,2.03
		c0,0.94,0,1.72-0.16,2.34c0,0.78-0.31,1.4-0.62,2.03c-0.46,0.62-1.09,1.25-1.87,1.56C384.38,198.31,383.28,198.47,382.04,198.47
		L382.04,198.47z M415.59,198.47h-1.72c-4.52,0-7.8-0.78-9.83-2.18c-2.18-1.25-3.27-4.06-3.27-8.11v-6.4c0-4.05,1.09-6.71,3.27-8.11
		c2.03-1.4,5.31-2.03,9.83-2.03h1.72c4.37,0,7.65,0.62,9.83,2.03c2.03,1.4,3.12,4.06,3.12,8.11v6.4c0,4.05-1.1,6.87-3.12,8.11
		C423.24,197.69,419.96,198.47,415.59,198.47L415.59,198.47z M413.87,195.35h1.72c1.88,0,3.44,0,4.53-0.16
		c1.1-0.16,2.03-0.47,2.97-0.94c0.94-0.47,1.56-1.25,1.87-2.19c0.31-0.94,0.47-2.34,0.47-3.9v-6.24c0-1.72-0.16-3.12-0.47-4.06
		c-0.31-0.94-0.94-1.71-1.87-2.19c-0.93-0.47-1.87-0.78-2.97-0.94c-1.09-0.16-2.65-0.16-4.53-0.16h-1.72c-2.03,0-3.59,0-4.68,0.16
		c-0.94,0.16-2.03,0.47-2.96,0.94c-0.94,0.47-1.57,1.25-1.88,2.19c-0.31,0.93-0.46,2.34-0.46,4.06v6.24c0,1.56,0.15,2.96,0.46,3.9
		c0.31,0.94,0.94,1.72,1.88,2.19c0.94,0.47,2.03,0.78,2.96,0.94C410.29,195.35,411.84,195.35,413.87,195.35L413.87,195.35z
		 M456.63,195.35c3.44,0,5.78-0.78,7.5-2.66c1.71-1.72,2.5-4.37,2.5-7.65v-11.86c0-1.4,0.62-2.03,1.56-2.03
		c0.94,0,1.57,0.62,1.57,2.03v23.57c0,1.4-0.47,2.03-1.4,2.03c-1.1,0-1.72-0.62-1.72-2.03v-2.03c-2.18,2.5-5.62,3.74-9.99,3.74
		h-1.56c-4.53,0-7.8-0.78-9.83-2.18c-2.19-1.25-3.12-4.06-3.12-8.11v-14.99c0-1.4,0.47-2.03,1.4-2.03c1.1,0,1.56,0.62,1.56,2.03
		v14.99c0,1.56,0.16,2.96,0.47,3.9c0.31,0.94,0.93,1.72,1.87,2.19c0.94,0.47,1.87,0.78,2.97,0.94c1.09,0.16,2.65,0.16,4.68,0.16
		H456.63z M497.22,174.59c-3.28,0-5.77,0.94-7.34,2.66c-1.71,1.71-2.49,4.37-2.49,7.65v12.02c0,1.25-0.62,1.87-1.56,1.87
		c-1.09,0-1.56-0.62-1.56-1.87v-23.72c0-1.4,0.47-2.03,1.41-2.03c1.09,0,1.71,0.62,1.71,2.03v2.03c2.18-2.49,5.62-3.58,9.83-3.58
		h1.72c4.53,0,7.8,0.62,9.83,2.03c2.03,1.4,3.12,4.06,3.12,8.11v15.14c0,1.25-0.47,1.87-1.4,1.87c-1.09,0-1.56-0.62-1.56-1.87
		v-14.98c0-1.72-0.16-3.12-0.47-4.06c-0.47-0.94-1.09-1.71-1.87-2.19c-0.94-0.47-2.03-0.78-2.96-0.94c-1.1-0.16-2.66-0.16-4.68-0.16
		H497.22z M529.52,188.17c0,3.12,0.62,5.15,2.03,5.93c1.25,0.94,3.75,1.25,7.34,1.25c1.25,0,2.03,0.47,2.03,1.4
		c0,1.09-0.78,1.71-2.03,1.71c-4.21,0-7.34-0.78-9.37-2.18c-2.03-1.4-3.12-4.06-3.12-8.11v-13.58c-1.25-0.16-1.72-0.62-1.72-1.56
		c0-0.94,0.47-1.4,1.72-1.4v-6.09c0-1.41,0.47-2.19,1.4-2.19c1.09,0,1.72,0.78,1.72,2.19v6.09h7.96c1.41,0,2.03,0.47,2.03,1.56
		c0,0.94-0.62,1.4-2.03,1.4h-7.96V188.17z M553.71,199.09c-1.09,0-1.56-0.62-1.56-1.87v-24.5c0-1.25,0.62-1.87,1.56-1.87
		c0.94,0,1.56,0.62,1.56,1.87v24.5C555.27,198.47,554.65,199.09,553.71,199.09L553.71,199.09z M553.71,161.02
		c0.62,0,1.25,0.16,1.88,0.62c0.78,0.47,1.09,1.09,1.09,1.71c0,0.62-0.31,1.25-1.09,1.72c-0.63,0.47-1.25,0.62-1.88,0.62
		c-0.62,0-1.25-0.16-2.03-0.62c-0.62-0.47-0.93-1.1-0.93-1.72c0-0.62,0.31-1.25,0.93-1.71
		C552.46,161.17,553.09,161.02,553.71,161.02L553.71,161.02z M582.74,174.59c-3.27,0-5.78,0.94-7.33,2.66
		c-1.71,1.71-2.66,4.37-2.66,7.65v12.02c0,1.25-0.47,1.87-1.4,1.87c-1.09,0-1.56-0.62-1.56-1.87v-23.72c0-1.4,0.47-2.03,1.4-2.03
		c1.09,0,1.56,0.62,1.56,2.03v2.03c2.34-2.49,5.62-3.58,9.99-3.58h1.71c4.53,0,7.81,0.62,9.83,2.03c2.03,1.4,3.12,4.06,3.12,8.11
		v15.14c0,1.25-0.47,1.87-1.41,1.87c-1.09,0-1.56-0.62-1.56-1.87v-14.98c0-1.72-0.16-3.12-0.62-4.06c-0.31-0.94-0.94-1.71-1.72-2.19
		c-0.93-0.47-2.03-0.78-3.12-0.94c-0.94-0.16-2.5-0.16-4.53-0.16H582.74z M638.61,203.47c0,2.5-0.31,4.37-1.09,5.31
		c-0.63,1.09-2.03,1.56-4.21,1.56h-16.39c-1.25,0-2.34-0.16-3.12-0.47c-0.94-0.47-1.4-0.94-1.87-1.71
		c-0.31-0.62-0.62-1.25-0.62-2.03c-0.16-0.62-0.31-1.41-0.31-2.19c0-1.4,0.62-2.03,1.56-2.03c1.09,0,1.56,0.62,1.56,1.87
		c0,1.25,0.16,2.19,0.63,2.81c0.47,0.47,1.4,0.78,2.5,0.78H633c1.09,0,1.87-0.16,2.18-0.62c0.31-0.31,0.47-1.09,0.47-2.34v-5.93
		h-11.7c-4.37,0-7.65-0.78-9.83-2.18c-2.03-1.25-3.12-4.06-3.12-8.11v-6.4c0-4.05,1.09-6.71,3.12-8.11c2.19-1.4,5.46-2.03,9.83-2.03
		h1.72c4.37,0,7.65,1.09,9.99,3.58v-2.03c0-1.4,0.47-2.03,1.56-2.03c0.94,0,1.41,0.62,1.41,2.03V203.47z M635.64,195.35v-10.46
		c0-6.87-3.27-10.3-9.99-10.3h-1.72c-1.87,0-3.43,0-4.53,0.16c-1.09,0.16-2.03,0.47-2.96,0.94c-0.93,0.47-1.56,1.25-1.87,2.19
		c-0.31,0.93-0.47,2.34-0.47,4.06v6.24c0,1.56,0.16,2.96,0.47,3.9c0.31,0.94,0.94,1.72,1.87,2.19c0.94,0.47,1.87,0.78,2.96,0.94
		c1.1,0.16,2.66,0.16,4.53,0.16H635.64z"/>
	<path class="st1" d="M118.9,27.89c59.15,0,107.07,47.92,107.07,107.06c0,59.15-47.91,107.07-107.07,107.07
		c-18.57,0-35.89-4.68-51.19-12.95l3.9-2.97c14.04,7.33,30.27,11.55,47.28,11.55c56.66,0,102.7-46.04,102.7-102.7
		c0-56.65-46.04-102.69-102.7-102.69c-56.65,0-102.69,46.04-102.69,102.69c0,31.84,14.51,60.25,37.15,79.13l-2.81,3.28
		c-23.72-19.67-38.71-49.32-38.71-82.41C11.84,75.81,59.76,27.89,118.9,27.89L118.9,27.89z"/>
	<polygon class="st2" points="25.73,118.56 208.02,101.56 34.31,248.1 143.41,119.81 	"/>
	<g>
		<defs>
			<polygon id="SVGID_1_" points="25.73,118.56 208.02,101.56 34.31,248.1 143.41,119.81 			"/>
		</defs>
		<clipPath id="SVGID_2_">
			<use xlink:href="#SVGID_1_"  style="overflow:visible;"/>
		</clipPath>
		<polygon class="st3" points="16.37,123.4 196,111.7 -7.82,257.63 87.69,136.36 		"/>
	</g>
	<path class="st1" d="M115.31,48.49c0,0-12.64,41.2-18.42,58.84l40.42-3.44C129.83,87.98,115.31,48.49,115.31,48.49L115.31,48.49z"
		/>
	<path class="st1" d="M120.78,180.52c12.02,3.9,42.45,19.98,42.45,19.98l-13.11-44.17L120.78,180.52z"/>
	<path class="st1" d="M131.07,125.12c-12.95,13.89-70.38,84.74-70.38,84.74l31.21-84.74H131.07z"/>
</g>
</svg>
